<mxfile host="app.diagrams.net" modified="2021-11-12T07:04:41.780Z" agent="5.0 (Macintosh; Intel Mac OS X 10_15_7) AppleWebKit/537.36 (KHTML, like Gecko) Chrome/95.0.4638.54 Safari/537.36" etag="Mrn73i1LM_yU0kN51c7T" version="15.6.8" type="github">
  <diagram id="ysfTeSd7asSgukJ8PG5n" name="Page-1">
    <mxGraphModel dx="1298" dy="795" grid="1" gridSize="10" guides="1" tooltips="1" connect="1" arrows="1" fold="1" page="1" pageScale="1" pageWidth="827" pageHeight="1169" math="0" shadow="0">
      <root>
        <mxCell id="0" />
        <mxCell id="1" parent="0" />
        <mxCell id="VVuKA5i_O83L6-nlg39P-21" style="edgeStyle=orthogonalEdgeStyle;rounded=0;orthogonalLoop=1;jettySize=auto;html=1;entryX=0;entryY=0.5;entryDx=0;entryDy=0;fontSize=20;" edge="1" parent="1" source="VVuKA5i_O83L6-nlg39P-1" target="VVuKA5i_O83L6-nlg39P-2">
          <mxGeometry relative="1" as="geometry" />
        </mxCell>
        <mxCell id="VVuKA5i_O83L6-nlg39P-22" value="y/n" style="edgeLabel;html=1;align=center;verticalAlign=middle;resizable=0;points=[];fontSize=20;" vertex="1" connectable="0" parent="VVuKA5i_O83L6-nlg39P-21">
          <mxGeometry x="0.1133" y="1" relative="1" as="geometry">
            <mxPoint as="offset" />
          </mxGeometry>
        </mxCell>
        <mxCell id="VVuKA5i_O83L6-nlg39P-23" style="edgeStyle=orthogonalEdgeStyle;rounded=0;orthogonalLoop=1;jettySize=auto;html=1;entryX=0;entryY=0.5;entryDx=0;entryDy=0;fontSize=20;" edge="1" parent="1" source="VVuKA5i_O83L6-nlg39P-1" target="VVuKA5i_O83L6-nlg39P-3">
          <mxGeometry relative="1" as="geometry" />
        </mxCell>
        <mxCell id="VVuKA5i_O83L6-nlg39P-24" value="y/n" style="edgeLabel;html=1;align=center;verticalAlign=middle;resizable=0;points=[];fontSize=20;" vertex="1" connectable="0" parent="VVuKA5i_O83L6-nlg39P-23">
          <mxGeometry x="0.3467" y="-1" relative="1" as="geometry">
            <mxPoint as="offset" />
          </mxGeometry>
        </mxCell>
        <mxCell id="VVuKA5i_O83L6-nlg39P-25" style="edgeStyle=orthogonalEdgeStyle;rounded=0;orthogonalLoop=1;jettySize=auto;html=1;entryX=0;entryY=0.5;entryDx=0;entryDy=0;fontSize=20;" edge="1" parent="1" source="VVuKA5i_O83L6-nlg39P-1" target="VVuKA5i_O83L6-nlg39P-5">
          <mxGeometry relative="1" as="geometry" />
        </mxCell>
        <mxCell id="VVuKA5i_O83L6-nlg39P-26" value="y/n" style="edgeLabel;html=1;align=center;verticalAlign=middle;resizable=0;points=[];fontSize=20;" vertex="1" connectable="0" parent="VVuKA5i_O83L6-nlg39P-25">
          <mxGeometry x="-0.0733" y="1" relative="1" as="geometry">
            <mxPoint as="offset" />
          </mxGeometry>
        </mxCell>
        <mxCell id="VVuKA5i_O83L6-nlg39P-1" value="&lt;font style=&quot;font-size: 20px&quot;&gt;tf 过审安装包&lt;/font&gt;" style="rounded=0;whiteSpace=wrap;html=1;" vertex="1" parent="1">
          <mxGeometry x="80" y="290" width="170" height="70" as="geometry" />
        </mxCell>
        <mxCell id="VVuKA5i_O83L6-nlg39P-8" value="" style="edgeStyle=orthogonalEdgeStyle;rounded=0;orthogonalLoop=1;jettySize=auto;html=1;fontSize=20;" edge="1" parent="1" source="VVuKA5i_O83L6-nlg39P-2" target="VVuKA5i_O83L6-nlg39P-7">
          <mxGeometry relative="1" as="geometry" />
        </mxCell>
        <mxCell id="VVuKA5i_O83L6-nlg39P-2" value="&lt;span style=&quot;font-size: 20px&quot;&gt;群组 1&lt;/span&gt;" style="rounded=0;whiteSpace=wrap;html=1;" vertex="1" parent="1">
          <mxGeometry x="400" y="140" width="170" height="70" as="geometry" />
        </mxCell>
        <mxCell id="VVuKA5i_O83L6-nlg39P-10" value="" style="edgeStyle=orthogonalEdgeStyle;rounded=0;orthogonalLoop=1;jettySize=auto;html=1;fontSize=20;" edge="1" parent="1" source="VVuKA5i_O83L6-nlg39P-3" target="VVuKA5i_O83L6-nlg39P-9">
          <mxGeometry relative="1" as="geometry" />
        </mxCell>
        <mxCell id="VVuKA5i_O83L6-nlg39P-3" value="&lt;span style=&quot;font-size: 20px&quot;&gt;群组 2&lt;/span&gt;" style="rounded=0;whiteSpace=wrap;html=1;" vertex="1" parent="1">
          <mxGeometry x="400" y="290" width="170" height="70" as="geometry" />
        </mxCell>
        <mxCell id="VVuKA5i_O83L6-nlg39P-13" style="edgeStyle=orthogonalEdgeStyle;rounded=0;orthogonalLoop=1;jettySize=auto;html=1;entryX=0;entryY=0.5;entryDx=0;entryDy=0;fontSize=20;" edge="1" parent="1" source="VVuKA5i_O83L6-nlg39P-5" target="VVuKA5i_O83L6-nlg39P-11">
          <mxGeometry relative="1" as="geometry" />
        </mxCell>
        <mxCell id="VVuKA5i_O83L6-nlg39P-5" value="&lt;span style=&quot;font-size: 20px&quot;&gt;群组 3&lt;/span&gt;" style="rounded=0;whiteSpace=wrap;html=1;" vertex="1" parent="1">
          <mxGeometry x="400" y="440" width="170" height="70" as="geometry" />
        </mxCell>
        <mxCell id="VVuKA5i_O83L6-nlg39P-19" style="edgeStyle=orthogonalEdgeStyle;rounded=0;orthogonalLoop=1;jettySize=auto;html=1;fontSize=20;" edge="1" parent="1" source="VVuKA5i_O83L6-nlg39P-7" target="VVuKA5i_O83L6-nlg39P-14">
          <mxGeometry relative="1" as="geometry">
            <Array as="points">
              <mxPoint x="930" y="175" />
              <mxPoint x="930" y="320" />
            </Array>
          </mxGeometry>
        </mxCell>
        <mxCell id="VVuKA5i_O83L6-nlg39P-7" value="&lt;span style=&quot;font-size: 20px&quot;&gt;公开链接 1&lt;/span&gt;" style="rounded=0;whiteSpace=wrap;html=1;" vertex="1" parent="1">
          <mxGeometry x="650" y="140" width="170" height="70" as="geometry" />
        </mxCell>
        <mxCell id="VVuKA5i_O83L6-nlg39P-16" style="edgeStyle=orthogonalEdgeStyle;rounded=0;orthogonalLoop=1;jettySize=auto;html=1;fontSize=20;entryX=0.5;entryY=0.5;entryDx=0;entryDy=0;entryPerimeter=0;" edge="1" parent="1" source="VVuKA5i_O83L6-nlg39P-9" target="VVuKA5i_O83L6-nlg39P-14">
          <mxGeometry relative="1" as="geometry">
            <mxPoint x="1000" y="325" as="targetPoint" />
            <Array as="points">
              <mxPoint x="1045" y="325" />
            </Array>
          </mxGeometry>
        </mxCell>
        <mxCell id="VVuKA5i_O83L6-nlg39P-9" value="&lt;span style=&quot;font-size: 20px&quot;&gt;公开链接 2&lt;/span&gt;" style="rounded=0;whiteSpace=wrap;html=1;" vertex="1" parent="1">
          <mxGeometry x="650" y="290" width="170" height="70" as="geometry" />
        </mxCell>
        <mxCell id="VVuKA5i_O83L6-nlg39P-20" style="edgeStyle=orthogonalEdgeStyle;rounded=0;orthogonalLoop=1;jettySize=auto;html=1;fontSize=20;" edge="1" parent="1" source="VVuKA5i_O83L6-nlg39P-11" target="VVuKA5i_O83L6-nlg39P-14">
          <mxGeometry relative="1" as="geometry">
            <Array as="points">
              <mxPoint x="930" y="475" />
              <mxPoint x="930" y="330" />
            </Array>
          </mxGeometry>
        </mxCell>
        <mxCell id="VVuKA5i_O83L6-nlg39P-11" value="&lt;span style=&quot;font-size: 20px&quot;&gt;公开链接 3&lt;/span&gt;" style="rounded=0;whiteSpace=wrap;html=1;" vertex="1" parent="1">
          <mxGeometry x="650" y="440" width="170" height="70" as="geometry" />
        </mxCell>
        <mxCell id="VVuKA5i_O83L6-nlg39P-14" value="Actor" style="shape=umlActor;verticalLabelPosition=bottom;verticalAlign=top;html=1;outlineConnect=0;labelBackgroundColor=none;fontSize=20;" vertex="1" parent="1">
          <mxGeometry x="1030" y="290" width="30" height="60" as="geometry" />
        </mxCell>
      </root>
    </mxGraphModel>
  </diagram>
</mxfile>
